<svg width="42" height="42" viewBox="0 0 42 42" fill="none" xmlns="http://www.w3.org/2000/svg">
<g clip-path="url(#clip0_126:115)">
<path d="M35.785 35.7858H29.5619V26.04C29.5619 23.7161 29.5204 20.7244 26.3253 20.7244C23.0841 20.7244 22.5881 23.2565 22.5881 25.8709V35.7852H16.3652V15.744H22.3393V18.4828H22.4229C23.0208 17.4605 23.8847 16.6196 24.9227 16.0495C25.9607 15.4794 27.1339 15.2015 28.3174 15.2454C34.6247 15.2454 35.7876 19.3942 35.7876 24.7915L35.785 35.7858V35.7858ZM9.34337 13.0046C7.34886 13.0049 5.7317 11.3883 5.73137 9.39375C5.73104 7.39925 7.34755 5.78208 9.34205 5.78175C11.3366 5.78126 12.9537 7.39793 12.9541 9.39244C12.9542 10.3502 12.5739 11.2689 11.8968 11.9463C11.2197 12.6237 10.3012 13.0044 9.34337 13.0046V13.0046ZM12.455 35.786H6.22536V15.744H12.4548V35.7858L12.455 35.786ZM38.8874 0.00232437H3.09833C1.40684 -0.0167069 0.0196953 1.33829 -0.000976562 3.02977V38.9682C0.0190391 40.6605 1.40602 42.0168 3.09816 41.999H38.8874C40.5832 42.02 41.9756 40.6637 41.999 38.9682V3.02698C41.9749 1.33221 40.5823 -0.0226131 38.8874 -0.00046469" fill="#0A66C2"/>
</g>
<defs>
<clipPath id="clip0_126:115">
<rect width="42" height="42" fill="white"/>
</clipPath>
</defs>
</svg>
